<svg width="134" height="39" viewBox="0 0 134 39" fill="none" xmlns="http://www.w3.org/2000/svg">
<path d="M35.0227 15L31.0384 0.454545H32.3878L35.6832 12.9616H35.7969L39.0923 0.454545H40.6264L43.9219 12.9616H44.0355L47.331 0.454545H48.6875L44.7031 15H43.2827L39.9091 2.66335H39.8168L36.4432 15H35.0227ZM54.2202 15.2273C53.2022 15.2273 52.3215 14.9905 51.5781 14.517C50.8348 14.0388 50.2595 13.3783 49.8523 12.5355C49.4498 11.688 49.2486 10.7126 49.2486 9.60938C49.2486 8.51089 49.4498 7.53551 49.8523 6.68324C50.2595 5.82623 50.8205 5.15625 51.5355 4.6733C52.2552 4.18561 53.0862 3.94176 54.0284 3.94176C54.6203 3.94176 55.1908 4.05066 55.7401 4.26847C56.2893 4.48153 56.7817 4.81061 57.2173 5.25568C57.6577 5.69602 58.0057 6.25237 58.2614 6.92472C58.517 7.59233 58.6449 8.38305 58.6449 9.29688V9.92188H50.1222V8.80682H57.3523C57.3523 8.10606 57.2102 7.47633 56.9261 6.91761C56.6468 6.35417 56.2562 5.90909 55.7543 5.58239C55.2571 5.25568 54.6818 5.09233 54.0284 5.09233C53.3371 5.09233 52.7287 5.27699 52.2031 5.64631C51.6776 6.01562 51.2656 6.50331 50.9673 7.10938C50.6738 7.71544 50.5246 8.37831 50.5199 9.09801V9.76562C50.5199 10.6321 50.669 11.3897 50.9673 12.0384C51.2704 12.6823 51.6989 13.1818 52.2528 13.5369C52.8068 13.892 53.4626 14.0696 54.2202 14.0696C54.7363 14.0696 55.1884 13.9891 55.5767 13.8281C55.9697 13.6671 56.2988 13.4517 56.5639 13.1818C56.8338 12.9072 57.0374 12.6065 57.1747 12.2798L58.375 12.6705C58.2093 13.1297 57.937 13.5535 57.5582 13.9418C57.1842 14.33 56.7154 14.6425 56.152 14.8793C55.5933 15.1113 54.9493 15.2273 54.2202 15.2273ZM61.6935 15V0.454545H62.9648V6.17188H63.0785C63.2205 5.84517 63.4241 5.509 63.6893 5.16335C63.9592 4.81771 64.3119 4.52888 64.7475 4.29688C65.1879 4.06013 65.7418 3.94176 66.4094 3.94176C67.3043 3.94176 68.0903 4.1785 68.7674 4.65199C69.4445 5.12074 69.9724 5.77888 70.3512 6.62642C70.73 7.46922 70.9194 8.4517 70.9194 9.57386C70.9194 10.7008 70.73 11.688 70.3512 12.5355C69.9772 13.383 69.4516 14.0436 68.7745 14.517C68.1022 14.9905 67.3209 15.2273 66.4308 15.2273C65.7679 15.2273 65.2139 15.1089 64.7688 14.8722C64.3285 14.6354 63.9734 14.3442 63.7035 13.9986C63.4336 13.6482 63.2253 13.3073 63.0785 12.9759H62.9222V15H61.6935ZM62.9435 9.55256C62.9435 10.4332 63.0737 11.2145 63.3342 11.8963C63.5993 12.5734 63.9781 13.1061 64.4705 13.4943C64.9677 13.8778 65.569 14.0696 66.2745 14.0696C66.9989 14.0696 67.6121 13.8707 68.114 13.473C68.6159 13.0705 68.997 12.5284 69.2575 11.8466C69.5179 11.1648 69.6481 10.4001 69.6481 9.55256C69.6481 8.71449 69.5179 7.95928 69.2575 7.28693C69.0018 6.61458 68.623 6.08191 68.1211 5.68892C67.6192 5.29119 67.0037 5.09233 66.2745 5.09233C65.5643 5.09233 64.9606 5.28409 64.4634 5.66761C63.971 6.0464 63.5946 6.57197 63.3342 7.24432C63.0737 7.91193 62.9435 8.68134 62.9435 9.55256ZM81.0259 6.48438L79.8683 6.81108C79.7546 6.48437 79.5936 6.18845 79.3853 5.9233C79.177 5.65814 78.9047 5.44744 78.5685 5.29119C78.2371 5.13494 77.8252 5.05682 77.3327 5.05682C76.5941 5.05682 75.988 5.23201 75.5146 5.58239C75.0411 5.93277 74.8043 6.38494 74.8043 6.93892C74.8043 7.40767 74.9653 7.78883 75.2873 8.08239C75.614 8.37121 76.1159 8.60085 76.793 8.77131L78.4407 9.17614C79.3545 9.39867 80.0387 9.75142 80.4933 10.2344C80.9525 10.7173 81.1822 11.3234 81.1822 12.0526C81.1822 12.6681 81.0117 13.215 80.6708 13.6932C80.3299 14.1714 79.854 14.5478 79.2433 14.8224C78.6372 15.0923 77.9341 15.2273 77.1339 15.2273C76.0685 15.2273 75.1902 14.9882 74.4989 14.5099C73.8076 14.027 73.3649 13.331 73.1708 12.4219L74.3853 12.1236C74.5415 12.7723 74.8469 13.2623 75.3015 13.5938C75.7608 13.9252 76.3645 14.0909 77.1126 14.0909C77.9506 14.0909 78.6206 13.9039 79.1225 13.5298C79.6244 13.151 79.8754 12.6776 79.8754 12.1094C79.8754 11.669 79.7286 11.2997 79.435 11.0014C79.1415 10.6984 78.6964 10.4759 78.0998 10.3338L76.3171 9.90767C75.3701 9.6804 74.6694 9.32055 74.2148 8.82812C73.7603 8.3357 73.533 7.7249 73.533 6.99574C73.533 6.39441 73.6964 5.86648 74.0231 5.41193C74.3498 4.95265 74.7996 4.5928 75.3725 4.33239C75.9454 4.07197 76.5988 3.94176 77.3327 3.94176C78.3318 3.94176 79.1296 4.16903 79.7262 4.62358C80.3275 5.07339 80.7608 5.69366 81.0259 6.48438ZM83.9645 15V4.09091H85.2358V15H83.9645ZM84.6108 2.21591C84.3504 2.21591 84.1278 2.12831 83.9432 1.95312C83.7585 1.7732 83.6662 1.55777 83.6662 1.30682C83.6662 1.05587 83.7585 0.842803 83.9432 0.667614C84.1278 0.487689 84.3504 0.397726 84.6108 0.397726C84.8712 0.397726 85.0938 0.487689 85.2784 0.667614C85.4631 0.842803 85.5554 1.05587 85.5554 1.30682C85.5554 1.55777 85.4631 1.7732 85.2784 1.95312C85.0938 2.12831 84.8712 2.21591 84.6108 2.21591ZM92.8761 4.09091V5.19176H87.6701V4.09091H92.8761ZM89.2965 1.47727H90.5678V12.152C90.5678 12.6065 90.646 12.964 90.8022 13.2244C90.9585 13.4801 91.1621 13.6624 91.413 13.7713C91.6639 13.8755 91.9315 13.9276 92.2156 13.9276C92.3813 13.9276 92.5233 13.9181 92.6417 13.8991C92.7601 13.8755 92.8642 13.8518 92.9542 13.8281L93.2241 14.9716C93.101 15.0189 92.9495 15.0616 92.7695 15.0994C92.5896 15.142 92.3671 15.1634 92.1019 15.1634C91.6379 15.1634 91.1905 15.0616 90.7596 14.858C90.3335 14.6544 89.9831 14.3513 89.7085 13.9489C89.4338 13.5464 89.2965 13.0469 89.2965 12.4503V1.47727ZM100.04 15.2273C99.0225 15.2273 98.1418 14.9905 97.3984 14.517C96.6551 14.0388 96.0798 13.3783 95.6726 12.5355C95.2701 11.688 95.0689 10.7126 95.0689 9.60938C95.0689 8.51089 95.2701 7.53551 95.6726 6.68324C96.0798 5.82623 96.6409 5.15625 97.3558 4.6733C98.0755 4.18561 98.9065 3.94176 99.8487 3.94176C100.441 3.94176 101.011 4.05066 101.56 4.26847C102.11 4.48153 102.602 4.81061 103.038 5.25568C103.478 5.69602 103.826 6.25237 104.082 6.92472C104.337 7.59233 104.465 8.38305 104.465 9.29688V9.92188H95.9425V8.80682H103.173C103.173 8.10606 103.031 7.47633 102.746 6.91761C102.467 6.35417 102.076 5.90909 101.575 5.58239C101.077 5.25568 100.502 5.09233 99.8487 5.09233C99.1574 5.09233 98.549 5.27699 98.0234 5.64631C97.4979 6.01562 97.0859 6.50331 96.7876 7.10938C96.4941 7.71544 96.3449 8.37831 96.3402 9.09801V9.76562C96.3402 10.6321 96.4893 11.3897 96.7876 12.0384C97.0907 12.6823 97.5192 13.1818 98.0732 13.5369C98.6271 13.892 99.2829 14.0696 100.04 14.0696C100.557 14.0696 101.009 13.9891 101.397 13.8281C101.79 13.6671 102.119 13.4517 102.384 13.1818C102.654 12.9072 102.858 12.6065 102.995 12.2798L104.195 12.6705C104.03 13.1297 103.757 13.5535 103.379 13.9418C103.004 14.33 102.536 14.6425 101.972 14.8793C101.414 15.1113 100.77 15.2273 100.04 15.2273ZM113.139 15V0.454545H114.41V6.17188H114.524C114.666 5.84517 114.869 5.509 115.135 5.16335C115.404 4.81771 115.757 4.52888 116.193 4.29688C116.633 4.06013 117.187 3.94176 117.855 3.94176C118.75 3.94176 119.536 4.1785 120.213 4.65199C120.89 5.12074 121.418 5.77888 121.797 6.62642C122.175 7.46922 122.365 8.4517 122.365 9.57386C122.365 10.7008 122.175 11.688 121.797 12.5355C121.422 13.383 120.897 14.0436 120.22 14.517C119.547 14.9905 118.766 15.2273 117.876 15.2273C117.213 15.2273 116.659 15.1089 116.214 14.8722C115.774 14.6354 115.419 14.3442 115.149 13.9986C114.879 13.6482 114.671 13.3073 114.524 12.9759H114.368V15H113.139ZM114.389 9.55256C114.389 10.4332 114.519 11.2145 114.779 11.8963C115.045 12.5734 115.423 13.1061 115.916 13.4943C116.413 13.8778 117.014 14.0696 117.72 14.0696C118.444 14.0696 119.057 13.8707 119.559 13.473C120.061 13.0705 120.442 12.5284 120.703 11.8466C120.963 11.1648 121.093 10.4001 121.093 9.55256C121.093 8.71449 120.963 7.95928 120.703 7.28693C120.447 6.61458 120.068 6.08191 119.566 5.68892C119.065 5.29119 118.449 5.09233 117.72 5.09233C117.01 5.09233 116.406 5.28409 115.909 5.66761C115.416 6.0464 115.04 6.57197 114.779 7.24432C114.519 7.91193 114.389 8.68134 114.389 9.55256ZM125.632 19.0909C125.381 19.0909 125.146 19.0672 124.929 19.0199C124.711 18.9725 124.538 18.9205 124.41 18.8636L124.751 17.7486C125.182 17.8812 125.565 17.9285 125.902 17.8906C126.238 17.8575 126.536 17.706 126.797 17.4361C127.057 17.1709 127.289 16.7637 127.493 16.2145L127.89 15.1065L123.877 4.09091H125.248L128.487 13.331H128.586L131.825 4.09091H133.196L128.579 16.7259C128.385 17.2514 128.146 17.6894 127.862 18.0398C127.578 18.3949 127.249 18.6577 126.875 18.8281C126.505 19.0033 126.091 19.0909 125.632 19.0909ZM10.4062 35.5391V38H2.83789V35.5391H10.4062ZM3.92188 23.7812V38H0.738281V23.7812H3.92188ZM9.42969 29.5039V31.8867H2.83789V29.5039H9.42969ZM10.416 23.7812V26.252H2.83789V23.7812H10.416ZM17.7695 35.6367V23H20.8359V38H18.082L17.7695 35.6367ZM11.1875 32.8438V32.6387C11.1875 31.8379 11.2754 31.1087 11.4512 30.4512C11.6335 29.7871 11.8971 29.2174 12.2422 28.7422C12.5938 28.2604 13.0267 27.8893 13.541 27.6289C14.0553 27.3685 14.6445 27.2383 15.3086 27.2383C15.9206 27.2383 16.4544 27.375 16.9102 27.6484C17.3659 27.9154 17.7533 28.293 18.0723 28.7812C18.3978 29.263 18.6615 29.8327 18.8633 30.4902C19.0651 31.1413 19.2181 31.8477 19.3223 32.6094V32.9609C19.2246 33.6901 19.0716 34.3704 18.8633 35.002C18.6615 35.6335 18.3978 36.1901 18.0723 36.6719C17.7533 37.1471 17.3626 37.5215 16.9004 37.7949C16.4447 38.0618 15.9076 38.1953 15.2891 38.1953C14.625 38.1953 14.0358 38.0618 13.5215 37.7949C13.0137 37.528 12.5872 37.1536 12.2422 36.6719C11.8971 36.1901 11.6335 35.6237 11.4512 34.9727C11.2754 34.3216 11.1875 33.612 11.1875 32.8438ZM14.2344 32.6387V32.8438C14.2344 33.2604 14.2637 33.6478 14.3223 34.0059C14.3874 34.3639 14.4915 34.6797 14.6348 34.9531C14.778 35.2266 14.9668 35.4414 15.2012 35.5977C15.4355 35.7474 15.722 35.8223 16.0605 35.8223C16.5163 35.8223 16.8906 35.7181 17.1836 35.5098C17.4766 35.2949 17.6979 34.9987 17.8477 34.6211C17.9974 34.2435 18.0755 33.804 18.082 33.3027V32.2773C18.082 31.8607 18.0397 31.4863 17.9551 31.1543C17.8704 30.8223 17.7435 30.5423 17.5742 30.3145C17.4115 30.0866 17.2064 29.9141 16.959 29.7969C16.7116 29.6732 16.4186 29.6113 16.0801 29.6113C15.748 29.6113 15.4648 29.6895 15.2305 29.8457C14.9961 29.9954 14.804 30.207 14.6543 30.4805C14.5111 30.7539 14.4036 31.0762 14.332 31.4473C14.2669 31.8118 14.2344 32.209 14.2344 32.6387ZM25.9824 35.0605L28.0527 27.4336H29.9766L29.3223 30.832L27.252 38H25.6797L25.9824 35.0605ZM25.0352 27.4336L26.4219 35.0312L26.5684 38H24.6934L22.0957 27.4336H25.0352ZM31.8516 34.8848L33.2285 27.4336H36.168L33.5898 38H31.7148L31.8516 34.8848ZM30.2109 27.4336L32.3008 35.0215L32.6035 38H31.0117L28.9609 30.8418L28.3359 27.4336H30.2109ZM43.0723 35.4805V30.9492C43.0723 30.6302 43.0234 30.3568 42.9258 30.1289C42.8281 29.901 42.6751 29.722 42.4668 29.5918C42.2585 29.4616 41.9883 29.3965 41.6562 29.3965C41.3763 29.3965 41.1322 29.4453 40.9238 29.543C40.722 29.6406 40.5658 29.7806 40.4551 29.9629C40.3509 30.1452 40.2988 30.3698 40.2988 30.6367H37.252C37.252 30.1615 37.3594 29.7188 37.5742 29.3086C37.7891 28.8984 38.0951 28.5371 38.4922 28.2246C38.8958 27.9121 39.3776 27.6712 39.9375 27.502C40.4974 27.3262 41.1257 27.2383 41.8223 27.2383C42.6491 27.2383 43.3848 27.3783 44.0293 27.6582C44.6803 27.9316 45.1947 28.3451 45.5723 28.8984C45.9499 29.4453 46.1387 30.1354 46.1387 30.9688V35.3926C46.1387 36.0306 46.1745 36.5319 46.2461 36.8965C46.3242 37.2546 46.4349 37.5671 46.5781 37.834V38H43.502C43.3587 37.694 43.2513 37.3164 43.1797 36.8672C43.1081 36.4115 43.0723 35.9492 43.0723 35.4805ZM43.4531 31.5547L43.4727 33.2344H41.959C41.6204 33.2344 41.3275 33.2767 41.0801 33.3613C40.8392 33.446 40.6439 33.5632 40.4941 33.7129C40.3444 33.8561 40.2337 34.0254 40.1621 34.2207C40.097 34.4095 40.0645 34.6178 40.0645 34.8457C40.0645 35.0605 40.1165 35.2559 40.2207 35.4316C40.3249 35.6009 40.4681 35.7344 40.6504 35.832C40.8327 35.9297 41.0443 35.9785 41.2852 35.9785C41.6823 35.9785 42.0208 35.9004 42.3008 35.7441C42.5872 35.5879 42.8086 35.3991 42.9648 35.1777C43.1211 34.9499 43.1992 34.7383 43.1992 34.543L43.9316 35.8125C43.8145 36.0729 43.6712 36.3431 43.502 36.623C43.3327 36.8965 43.1178 37.1536 42.8574 37.3945C42.597 37.6289 42.2812 37.821 41.9102 37.9707C41.5456 38.1204 41.1061 38.1953 40.5918 38.1953C39.9277 38.1953 39.3255 38.0618 38.7852 37.7949C38.2448 37.5215 37.8118 37.1471 37.4863 36.6719C37.1673 36.1966 37.0078 35.6497 37.0078 35.0312C37.0078 34.4779 37.1087 33.9863 37.3105 33.5566C37.5124 33.127 37.8151 32.7624 38.2188 32.4629C38.6289 32.1634 39.1432 31.9388 39.7617 31.7891C40.3802 31.6328 41.1029 31.5547 41.9297 31.5547H43.4531ZM51.1973 29.8945V38H48.1504V27.4336H51.0117L51.1973 29.8945ZM54.3516 27.3555L54.3027 30.1973C54.1725 30.1777 54.0033 30.1615 53.7949 30.1484C53.5866 30.1289 53.4076 30.1191 53.2578 30.1191C52.8672 30.1191 52.5286 30.168 52.2422 30.2656C51.9622 30.3568 51.7279 30.4935 51.5391 30.6758C51.3568 30.8581 51.2201 31.0859 51.1289 31.3594C51.0378 31.6263 50.9922 31.9355 50.9922 32.2871L50.416 32.0039C50.416 31.3073 50.4844 30.6693 50.6211 30.0898C50.7578 29.5104 50.9564 29.0091 51.2168 28.5859C51.4772 28.1562 51.7962 27.8242 52.1738 27.5898C52.5514 27.3555 52.9811 27.2383 53.4629 27.2383C53.6191 27.2383 53.7786 27.248 53.9414 27.2676C54.1042 27.2871 54.2409 27.3164 54.3516 27.3555ZM61.5586 35.6367V23H64.625V38H61.8711L61.5586 35.6367ZM54.9766 32.8438V32.6387C54.9766 31.8379 55.0645 31.1087 55.2402 30.4512C55.4225 29.7871 55.6862 29.2174 56.0312 28.7422C56.3828 28.2604 56.8158 27.8893 57.3301 27.6289C57.8444 27.3685 58.4336 27.2383 59.0977 27.2383C59.7096 27.2383 60.2435 27.375 60.6992 27.6484C61.1549 27.9154 61.5423 28.293 61.8613 28.7812C62.1868 29.263 62.4505 29.8327 62.6523 30.4902C62.8542 31.1413 63.0072 31.8477 63.1113 32.6094V32.9609C63.0137 33.6901 62.8607 34.3704 62.6523 35.002C62.4505 35.6335 62.1868 36.1901 61.8613 36.6719C61.5423 37.1471 61.1517 37.5215 60.6895 37.7949C60.2337 38.0618 59.6966 38.1953 59.0781 38.1953C58.4141 38.1953 57.8249 38.0618 57.3105 37.7949C56.8027 37.528 56.3763 37.1536 56.0312 36.6719C55.6862 36.1901 55.4225 35.6237 55.2402 34.9727C55.0645 34.3216 54.9766 33.612 54.9766 32.8438ZM58.0234 32.6387V32.8438C58.0234 33.2604 58.0527 33.6478 58.1113 34.0059C58.1764 34.3639 58.2806 34.6797 58.4238 34.9531C58.5671 35.2266 58.7559 35.4414 58.9902 35.5977C59.2246 35.7474 59.5111 35.8223 59.8496 35.8223C60.3053 35.8223 60.6797 35.7181 60.9727 35.5098C61.2656 35.2949 61.487 34.9987 61.6367 34.6211C61.7865 34.2435 61.8646 33.804 61.8711 33.3027V32.2773C61.8711 31.8607 61.8288 31.4863 61.7441 31.1543C61.6595 30.8223 61.5326 30.5423 61.3633 30.3145C61.2005 30.0866 60.9954 29.9141 60.748 29.7969C60.5007 29.6732 60.2077 29.6113 59.8691 29.6113C59.5371 29.6113 59.2539 29.6895 59.0195 29.8457C58.7852 29.9954 58.5931 30.207 58.4434 30.4805C58.3001 30.7539 58.1927 31.0762 58.1211 31.4473C58.056 31.8118 58.0234 32.209 58.0234 32.6387ZM77.0469 34.8457L80.2109 23.7812H83.7559L78.8828 38H76.5684L77.0469 34.8457ZM74.166 23.7812L77.3203 34.8457L77.8184 38H75.4746L70.6309 23.7812H74.166ZM89.332 38.1953C88.4922 38.1953 87.7402 38.0618 87.0762 37.7949C86.4121 37.528 85.849 37.1602 85.3867 36.6914C84.931 36.2161 84.5827 35.6693 84.3418 35.0508C84.1009 34.4323 83.9805 33.7715 83.9805 33.0684V32.6973C83.9805 31.9095 84.0911 31.1836 84.3125 30.5195C84.5339 29.8555 84.8561 29.2793 85.2793 28.791C85.709 28.2962 86.2363 27.9154 86.8613 27.6484C87.4863 27.375 88.1992 27.2383 89 27.2383C89.7487 27.2383 90.416 27.362 91.002 27.6094C91.5879 27.8503 92.0827 28.1986 92.4863 28.6543C92.89 29.1035 93.196 29.6471 93.4043 30.2852C93.6191 30.9167 93.7266 31.6263 93.7266 32.4141V33.6641H85.2109V31.7012H90.7383V31.4668C90.7383 31.0957 90.6699 30.7702 90.5332 30.4902C90.403 30.2103 90.2077 29.9954 89.9473 29.8457C89.6934 29.6895 89.3711 29.6113 88.9805 29.6113C88.6094 29.6113 88.3001 29.6895 88.0527 29.8457C87.8053 30.002 87.6068 30.2233 87.457 30.5098C87.3138 30.7897 87.2096 31.1185 87.1445 31.4961C87.0794 31.8672 87.0469 32.2676 87.0469 32.6973V33.0684C87.0469 33.4785 87.1022 33.8529 87.2129 34.1914C87.3236 34.5299 87.4863 34.8197 87.7012 35.0605C87.916 35.3014 88.1764 35.4902 88.4824 35.627C88.7884 35.7637 89.1367 35.832 89.5273 35.832C90.0091 35.832 90.4681 35.7409 90.9043 35.5586C91.3405 35.3698 91.7181 35.0768 92.0371 34.6797L93.4629 36.3105C93.248 36.623 92.9453 36.9258 92.5547 37.2188C92.1706 37.5052 91.7083 37.7396 91.168 37.9219C90.6276 38.1042 90.0156 38.1953 89.332 38.1953ZM98.2676 29.8945V38H95.2207V27.4336H98.082L98.2676 29.8945ZM101.422 27.3555L101.373 30.1973C101.243 30.1777 101.074 30.1615 100.865 30.1484C100.657 30.1289 100.478 30.1191 100.328 30.1191C99.9375 30.1191 99.599 30.168 99.3125 30.2656C99.0326 30.3568 98.7982 30.4935 98.6094 30.6758C98.4271 30.8581 98.2904 31.0859 98.1992 31.3594C98.1081 31.6263 98.0625 31.9355 98.0625 32.2871L97.4863 32.0039C97.4863 31.3073 97.5547 30.6693 97.6914 30.0898C97.8281 29.5104 98.0267 29.0091 98.2871 28.5859C98.5475 28.1562 98.8665 27.8242 99.2441 27.5898C99.6217 27.3555 100.051 27.2383 100.533 27.2383C100.689 27.2383 100.849 27.248 101.012 27.2676C101.174 27.2871 101.311 27.3164 101.422 27.3555ZM106.891 35.8223C107.216 35.8223 107.499 35.7604 107.74 35.6367C107.981 35.513 108.167 35.3405 108.297 35.1191C108.434 34.8913 108.502 34.6178 108.502 34.2988H111.373C111.373 35.0671 111.174 35.7441 110.777 36.3301C110.387 36.916 109.859 37.375 109.195 37.707C108.531 38.0326 107.783 38.1953 106.949 38.1953C106.129 38.1953 105.413 38.0618 104.801 37.7949C104.189 37.5215 103.678 37.1406 103.268 36.6523C102.857 36.1641 102.548 35.5977 102.34 34.9531C102.138 34.3021 102.037 33.599 102.037 32.8438V32.5898C102.037 31.8411 102.138 31.1413 102.34 30.4902C102.548 29.8392 102.857 29.2695 103.268 28.7812C103.678 28.293 104.186 27.9154 104.791 27.6484C105.403 27.375 106.119 27.2383 106.939 27.2383C107.805 27.2383 108.57 27.4043 109.234 27.7363C109.905 28.0684 110.429 28.5469 110.807 29.1719C111.184 29.7904 111.373 30.5358 111.373 31.4082H108.502C108.502 31.0697 108.44 30.7669 108.316 30.5C108.199 30.2266 108.017 30.0117 107.77 29.8555C107.529 29.6927 107.229 29.6113 106.871 29.6113C106.5 29.6113 106.194 29.6927 105.953 29.8555C105.719 30.0117 105.54 30.2298 105.416 30.5098C105.292 30.7897 105.208 31.1087 105.162 31.4668C105.117 31.8184 105.094 32.1927 105.094 32.5898V32.8438C105.094 33.2474 105.117 33.6315 105.162 33.9961C105.208 34.3542 105.292 34.6699 105.416 34.9434C105.546 35.2168 105.729 35.4316 105.963 35.5879C106.197 35.7441 106.507 35.8223 106.891 35.8223ZM112.447 32.8242V32.6191C112.447 31.8444 112.558 31.1315 112.779 30.4805C113.001 29.8229 113.326 29.2533 113.756 28.7715C114.186 28.2897 114.713 27.9154 115.338 27.6484C115.963 27.375 116.679 27.2383 117.486 27.2383C118.307 27.2383 119.029 27.375 119.654 27.6484C120.286 27.9154 120.816 28.2897 121.246 28.7715C121.676 29.2533 122.001 29.8229 122.223 30.4805C122.444 31.1315 122.555 31.8444 122.555 32.6191V32.8242C122.555 33.5924 122.444 34.3053 122.223 34.9629C122.001 35.6139 121.676 36.1836 121.246 36.6719C120.816 37.1536 120.289 37.528 119.664 37.7949C119.039 38.0618 118.32 38.1953 117.506 38.1953C116.699 38.1953 115.979 38.0618 115.348 37.7949C114.716 37.528 114.186 37.1536 113.756 36.6719C113.326 36.1836 113.001 35.6139 112.779 34.9629C112.558 34.3053 112.447 33.5924 112.447 32.8242ZM115.504 32.6191V32.8242C115.504 33.2409 115.536 33.6315 115.602 33.9961C115.673 34.3607 115.787 34.6797 115.943 34.9531C116.1 35.2266 116.305 35.4414 116.559 35.5977C116.819 35.7474 117.135 35.8223 117.506 35.8223C117.877 35.8223 118.189 35.7474 118.443 35.5977C118.697 35.4414 118.902 35.2266 119.059 34.9531C119.215 34.6797 119.326 34.3607 119.391 33.9961C119.462 33.6315 119.498 33.2409 119.498 32.8242V32.6191C119.498 32.209 119.462 31.8249 119.391 31.4668C119.326 31.1022 119.215 30.7799 119.059 30.5C118.902 30.2201 118.694 30.002 118.434 29.8457C118.18 29.6895 117.864 29.6113 117.486 29.6113C117.122 29.6113 116.812 29.6895 116.559 29.8457C116.305 30.002 116.1 30.2201 115.943 30.5C115.787 30.7799 115.673 31.1022 115.602 31.4668C115.536 31.8249 115.504 32.209 115.504 32.6191ZM129.137 38.1953C128.297 38.1953 127.545 38.0618 126.881 37.7949C126.217 37.528 125.654 37.1602 125.191 36.6914C124.736 36.2161 124.387 35.6693 124.146 35.0508C123.906 34.4323 123.785 33.7715 123.785 33.0684V32.6973C123.785 31.9095 123.896 31.1836 124.117 30.5195C124.339 29.8555 124.661 29.2793 125.084 28.791C125.514 28.2962 126.041 27.9154 126.666 27.6484C127.291 27.375 128.004 27.2383 128.805 27.2383C129.553 27.2383 130.221 27.362 130.807 27.6094C131.393 27.8503 131.887 28.1986 132.291 28.6543C132.695 29.1035 133.001 29.6471 133.209 30.2852C133.424 30.9167 133.531 31.6263 133.531 32.4141V33.6641H125.016V31.7012H130.543V31.4668C130.543 31.0957 130.475 30.7702 130.338 30.4902C130.208 30.2103 130.012 29.9954 129.752 29.8457C129.498 29.6895 129.176 29.6113 128.785 29.6113C128.414 29.6113 128.105 29.6895 127.857 29.8457C127.61 30.002 127.411 30.2233 127.262 30.5098C127.118 30.7897 127.014 31.1185 126.949 31.4961C126.884 31.8672 126.852 32.2676 126.852 32.6973V33.0684C126.852 33.4785 126.907 33.8529 127.018 34.1914C127.128 34.5299 127.291 34.8197 127.506 35.0605C127.721 35.3014 127.981 35.4902 128.287 35.627C128.593 35.7637 128.941 35.832 129.332 35.832C129.814 35.832 130.273 35.7409 130.709 35.5586C131.145 35.3698 131.523 35.0768 131.842 34.6797L133.268 36.3105C133.053 36.623 132.75 36.9258 132.359 37.2188C131.975 37.5052 131.513 37.7396 130.973 37.9219C130.432 38.1042 129.82 38.1953 129.137 38.1953Z" fill="white"/>
</svg>
