<?xml version="1.0" encoding="utf-8"?>
<!-- Generator: Adobe Illustrator 24.0.0, SVG Export Plug-In . SVG Version: 6.00 Build 0)  -->
<svg version="1.1" id="Layer_1" xmlns="http://www.w3.org/2000/svg" xmlns:xlink="http://www.w3.org/1999/xlink" x="0px" y="0px"
	 viewBox="0 0 638.77 750" style="enable-background:new 0 0 638.77 750;" xml:space="preserve">
<style type="text/css">
	.st0{fill:#E58203;}
	.st1{fill:#FFFFFF;}
</style>
<g>
	<rect x="42.77" y="414.72" class="st0" width="555.62" height="235.79"/>
	<path class="st1" d="M40.38,253.36l73.28-6.26c0,0,1.28,23.74,35.11,23.74c26.55,0,29.87-15.32,27.57-23.23c-2.3-7.91-19.79-13.02-58.72-18.89
		s-69.06-20.47-69.06-61.32s35.23-60.09,97.19-60.09s82.89,23.15,92.09,53.28l-69.96,6.47c0,0-2.51-19.66-30.72-19.66
		s-28.6,22.21-11.87,28.34c16.72,6.13,60.77,4.85,87.19,18.26s42.21,48.81,24.51,79.79s-53.96,39.32-95.66,39.32
		S52.81,306.63,40.38,253.36z"/>
	<path class="st1" d="M326.85,41.61v94.13c0,0-17.87-23.49-53.62-23.49c-48.77,0-82.72,34.13-82.72,103.38s39.32,101.89,80.85,101.89
		s61.79-33.4,61.79-33.4v28.98h68.43V41.61H326.85z M295.32,262.42c-19.02,0-32.17-17.11-32.17-46.79s12.51-46.79,31.02-46.79
		c18.38,0,35.11,14.17,35.11,45.83C329.28,246.34,314.34,262.42,295.32,262.42z"/>
	<path class="st1" d="M452.26,384.09v-94.13c0,0,17.87,23.49,53.62,23.49c48.77,0,82.72-34.13,82.72-103.38s-39.32-101.89-80.85-101.89
		s-61.79,33.4-61.79,33.4V112.6h-68.43v271.49H452.26z M484.24,163.94c18.75,0,31.71,17.09,31.71,46.75s-12.33,46.75-30.58,46.75
		c-18.12,0-34.61-14.16-34.61-45.79C450.77,180.02,465.49,163.94,484.24,163.94z"/>
	<g>
		<g>
			<path class="st0" d="M236.98,273.78c-5.03,8.8-11.55,15.77-19.28,21.25c-16.33-16.75-27.18-43.02-27.18-79.39
				c0-10.33,0.76-19.88,2.21-28.65c7.12,1.77,13.87,4.03,19.74,7.01C238.9,207.4,254.69,242.81,236.98,273.78z"/>
			<path class="st0" d="M237.84,160.59l-39.21,3.63c5.22-14.16,12.82-25.4,22.34-33.75C229.28,138.95,234.39,149.28,237.84,160.59z"
				/>
		</g>
		<rect x="377.53" y="112.6" class="st0" width="24.04" height="200.5"/>
	</g>
	<g>
		<path class="st1" d="M88.73,456.74c-5.68-2.21-8.21-3.74-8.21-6.97c0-2.49,2.17-5,7.01-5c4.17,0,7.16,1.28,8.57,2.04l0.27,0.15
			l2.09-6.91l-0.19-0.1c-1.98-1.02-5.43-2.23-10.62-2.23c-9.24,0-15.69,5.28-15.69,12.83c0,5.89,3.8,10.01,11.97,12.95
			c5.55,2,7.62,3.91,7.62,7.03c0,3.58-2.89,5.72-7.73,5.72c-3.54,0-7.45-1.03-10.45-2.76l-0.28-0.16l-1.88,7.11l0.16,0.1
			c2.31,1.37,7.15,2.76,11.93,2.76c12.44,0,16.86-7.19,16.86-13.35C100.17,463.79,96.64,459.72,88.73,456.74z"/>
		<polygon class="st1" points="159.66,445.61 172.12,445.61 172.12,482.65 180.6,482.65 180.6,445.61 193.18,445.61 193.18,438.43 
			159.66,438.43 		"/>
		<path class="st1" d="M280.76,464.17c0,8.03-3.1,12.27-8.96,12.27c-5.61,0-8.7-4.36-8.7-12.27v-25.74h-8.48v25.29
			c0,12.85,5.85,19.64,16.92,19.64c11.41,0,17.7-7,17.7-19.71v-25.22h-8.48V464.17z"/>
		<path class="st1" d="M378.31,438.69H366.7l-15.66,44.22h9.64l4.16-12.39h14.98l4.37,12.39h10l-15.82-44.05L378.31,438.69z
			 M371.61,448.1c0.19-0.73,0.38-1.45,0.57-2.14l0.25,0.89c0.59,2.13,1.27,4.53,2.02,6.69l3.68,10.43h-11.7l3.61-10.44
			C370.62,451.83,371.12,449.94,371.61,448.1z"/>
		<path class="st1" d="M484.33,472.51l-0.59-2.36c-1.17-4.49-3.11-7.26-5.9-8.46c3.64-1.46,7.73-5.17,7.73-11.06
			c0-3.69-1.37-6.87-3.85-8.95c-2.92-2.46-7.13-3.56-13.65-3.56c-4.3,0-8.82,0.34-12.11,0.91l-0.21,0.04v43.6h8.41v-17.97h3.77
			c4.51,0.13,6.44,2.01,7.61,7.46c1.18,5.22,2.25,9,2.94,10.37l0.07,0.14h8.81l-0.2-0.37C486.4,480.87,485.44,477,484.33,472.51z
			 M477.16,451.4c0,4.22-3.34,6.95-8.51,6.95h-4.49v-13.37c0.56-0.12,1.98-0.34,4.68-0.34C474.21,444.64,477.16,447.04,477.16,451.4
			z"/>
		<polygon class="st1" points="545.52,438.43 545.52,445.61 557.97,445.61 557.97,482.65 566.45,482.65 566.45,445.61 
			579.03,445.61 579.03,438.43 		"/>
	</g>
	<g>
		<path class="st1" d="M103.76,517.54c-4.12-3.45-9.77-5.05-17.79-5.05c-4.64,0-9.12,0.32-12.61,0.9l-0.21,0.04v42.86l0.22,0.03
			c3.07,0.38,6.66,0.58,10.67,0.58c8.62,0,15.44-2.06,19.72-5.95c4.46-4.03,6.81-10.03,6.81-17.34
			C110.59,526.62,108.29,521.22,103.76,517.54z M97.53,546.03c-2.73,2.71-6.67,4.09-11.71,4.09c-1.57-0.01-3.17,0-4.28-0.16v-30.43
			c1.22-0.26,3.03-0.4,5.14-0.4c4.91,0,8.72,1.33,11.32,3.95c2.52,2.54,3.78,6.16,3.75,10.78
			C101.75,539.15,100.33,543.24,97.53,546.03z"/>
		<rect x="158.43" y="512.81" class="st1" width="8.39" height="43.63"/>
		<path class="st1" d="M238.24,519.13c3.05,0,5.87,0.55,8.36,1.64l0.26,0.12l1.86-6.75l-0.18-0.09c-1.73-0.9-5.56-1.95-10.63-1.95
			c-13.96,0-23.33,9.26-23.33,23.03c0,13.54,8.55,21.94,22.31,21.94c5.53,0,9.53-1.05,11.27-1.95l0.17-0.09l-1.38-6.7l-0.29,0.13
			c-2.05,0.96-5.38,1.58-8.49,1.58c-9.14,0-14.82-5.86-14.82-15.3C223.36,525.11,229.06,519.13,238.24,519.13z"/>
		<path class="st1" d="M329.52,512.81h-10.97l-12.02,15.27l-0.37,0.5c-0.89,1.21-1.82,2.46-2.71,3.79v-19.56h-8.77v43.63h8.77
			v-15.32l3.79-4.29l12.85,19.61h10.37l-16.91-25L329.52,512.81z"/>
		<path class="st1" d="M391,530.87c-5.61-2.18-8.11-3.69-8.11-6.87c0-2.46,2.14-4.93,6.93-4.93c4.13,0,7.08,1.26,8.47,2.02
			l0.27,0.15l2.07-6.83l-0.19-0.1c-1.96-1-5.37-2.2-10.5-2.2c-9.13,0-15.51,5.21-15.51,12.67c0,5.81,3.76,9.87,11.83,12.78
			c5.49,1.97,7.53,3.85,7.53,6.93c0,3.53-2.85,5.64-7.64,5.64c-3.5,0-7.36-1.02-10.33-2.72l-0.28-0.16l-1.86,7.02l0.16,0.1
			c2.28,1.35,7.06,2.72,11.8,2.72c12.3,0,16.66-7.1,16.66-13.18C402.32,537.83,398.83,533.81,391,530.87z"/>
		<path class="st1" d="M469.65,512.1c-12.61,0-21.41,9.39-21.41,22.84c0,13.28,8.34,22.2,20.75,22.2c13.13,0,21.61-9.02,21.61-22.97
			C490.6,520.97,482.18,512.1,469.65,512.1z M469.46,518.94c8.28,0,12.05,8.06,12.05,15.56c0,9.46-4.84,15.81-12.05,15.81
			c-7.25,0-12.12-6.23-12.12-15.49C457.34,525.17,462.09,518.94,469.46,518.94z"/>
		<path class="st1" d="M566.68,512.81v15.29c0,6.43,0.19,11.67,0.61,16.78c-2.01-4.59-4.39-9.22-6.94-13.45l-11.16-18.49l-0.07-0.12
			h-9.37v43.63h7.75v-15.67c0-6.87-0.06-12.27-0.34-17.58c1.79,4.01,4.29,8.78,7.44,14.19l11.29,18.94l0.07,0.12h8.53v-43.63H566.68
			z"/>
	</g>
	<g>
		<path class="st1" d="M98.38,590.87c-2.84-2.38-7.19-3.58-12.92-3.58c-4.74,0-8.81,0.3-12.1,0.9l-0.21,0.04v43.02h8.32v-16.21
			c0.9,0.14,2.08,0.21,3.6,0.21c5.9,0,10.81-1.66,13.83-4.68c2.48-2.35,3.8-5.8,3.8-9.97C102.7,596.68,101.12,593.13,98.38,590.87z
			 M85.07,608.6c-1.72,0-2.79-0.08-3.6-0.26v-14.19c0.62-0.13,2.01-0.34,4.3-0.34c5.42,0,8.53,2.59,8.53,7.11
			C94.31,605.8,90.95,608.6,85.07,608.6z"/>
		<path class="st1" d="M173.92,621.21l-0.57-2.31c-1.16-4.42-3.07-7.16-5.83-8.35c3.6-1.44,7.63-5.1,7.63-10.91
			c0-3.64-1.35-6.78-3.81-8.83c-2.88-2.43-7.05-3.51-13.5-3.51c-4.25,0-8.73,0.34-11.97,0.9l-0.21,0.04v43.02h8.32v-17.73h3.72
			c4.46,0.13,6.36,1.98,7.52,7.36c1.17,5.14,2.22,8.87,2.91,10.23l0.07,0.14h8.72l-0.2-0.37
			C175.97,629.48,175.02,625.65,173.92,621.21z M166.83,600.41c0,4.16-3.3,6.85-8.41,6.85h-4.43v-13.18
			c0.55-0.11,1.95-0.33,4.62-0.33C163.91,593.75,166.83,596.11,166.83,600.41z"/>
		<path class="st1" d="M241.38,586.91c-12.23,0-20.77,9.39-20.77,22.84c0,13.28,8.09,22.2,20.13,22.2
			c12.73,0,20.96-9.02,20.96-22.97C261.7,595.78,253.54,586.91,241.38,586.91z M241.19,593.75c8.02,0,11.68,8.06,11.68,15.56
			c0,9.46-4.69,15.81-11.68,15.81c-7.02,0-11.74-6.23-11.74-15.49C229.45,599.98,234.06,593.75,241.19,593.75z"/>
		<path class="st1" d="M337.97,592.34c-4.12-3.45-9.77-5.05-17.79-5.05c-4.64,0-9.12,0.32-12.61,0.9l-0.21,0.04v42.86l0.22,0.03
			c3.07,0.38,6.66,0.58,10.67,0.58c8.62,0,15.44-2.06,19.72-5.95c4.46-4.03,6.81-10.03,6.81-17.34
			C344.79,601.43,342.5,596.03,337.97,592.34z M331.74,620.84c-2.73,2.71-6.67,4.09-11.7,4.09c-1.57-0.01-3.17,0-4.28-0.16v-30.43
			c1.22-0.26,3.03-0.4,5.14-0.4c4.91,0,8.72,1.33,11.32,3.95c2.52,2.54,3.78,6.16,3.75,10.78
			C335.96,613.96,334.54,618.05,331.74,620.84z"/>
		<path class="st1" d="M416.87,613.01c0,7.92-3.06,12.1-8.85,12.1c-5.54,0-8.6-4.3-8.6-12.1v-25.4h-8.39v24.95
			c0,12.68,5.78,19.38,16.73,19.38c11.28,0,17.5-6.91,17.5-19.45v-24.89h-8.39V613.01z"/>
		<path class="st1" d="M494.76,593.94c3.05,0,5.87,0.55,8.36,1.64l0.26,0.12l1.86-6.75l-0.18-0.09c-1.73-0.9-5.55-1.95-10.63-1.95
			c-13.96,0-23.33,9.26-23.33,23.03c0,13.54,8.55,21.94,22.31,21.94c5.54,0,9.53-1.05,11.27-1.95l0.17-0.09l-1.39-6.7l-0.29,0.13
			c-2.05,0.96-5.38,1.58-8.49,1.58c-9.14,0-14.82-5.86-14.82-15.3C479.88,599.92,485.58,593.94,494.76,593.94z"/>
		<polygon class="st1" points="558.03,624.28 558.03,612.11 574.32,612.11 574.32,605.21 558.03,605.21 558.03,594.58 
			575.28,594.58 575.28,587.61 549.65,587.61 549.65,631.25 576.24,631.25 576.24,624.28 		"/>
	</g>
	<g>
		<path class="st0" d="M89.16,667.56c-2.82-2.38-7.14-3.58-12.83-3.58c-4.71,0-8.75,0.3-12.01,0.9l-0.21,0.04v43.01h8.26v-16.21
			c0.89,0.14,2.07,0.21,3.57,0.21c5.85,0,10.73-1.66,13.73-4.68c2.46-2.35,3.77-5.8,3.77-9.97
			C93.45,673.37,91.89,669.83,89.16,667.56z M75.95,685.3c-1.71,0-2.77-0.08-3.57-0.26v-14.19c0.62-0.13,1.99-0.34,4.27-0.34
			c5.38,0,8.47,2.59,8.47,7.11C85.12,682.49,81.78,685.3,75.95,685.3z"/>
		<polygon class="st0" points="158.32,671.4 170.54,671.4 170.54,707.94 178.87,707.94 178.87,671.4 191.22,671.4 191.22,664.31 
			158.32,664.31 		"/>
		<path class="st0" d="M278.99,675.51c-1.32,2.59-2.7,5.37-3.94,8.22c-1.15-2.69-2.26-4.99-3.87-8.22l-5.69-11.21h-10.3l14.96,25.47
			v18.16h9.03v-18.35l15.5-24.9l0.24-0.38h-10.24L278.99,675.51z"/>
		<polygon class="st0" points="372.11,664.31 363.79,664.31 363.79,707.94 389.74,707.94 389.74,700.85 372.11,700.85 		"/>
		<polygon class="st0" points="447.29,671.4 459.51,671.4 459.51,707.94 467.84,707.94 467.84,671.4 480.19,671.4 480.19,664.31 
			447.29,664.31 		"/>
		<path class="st0" d="M578.95,669.04c-4.08-3.45-9.7-5.05-17.66-5.05c-4.61,0-9.05,0.32-12.52,0.9l-0.21,0.03v42.86l0.22,0.03
			c3.05,0.38,6.61,0.58,10.6,0.58c8.55,0,15.33-2.06,19.58-5.95c4.43-4.03,6.76-10.03,6.76-17.34
			C585.72,678.12,583.44,672.72,578.95,669.04z M572.72,697.56c-2.71,2.69-6.6,4.06-11.58,4.06c-1.53,0-3.15,0-4.25-0.16v-30.43
			c1.21-0.26,3-0.4,5.1-0.4c4.85,0,8.63,1.32,11.21,3.92c2.52,2.54,3.78,6.17,3.75,10.81C576.94,690.67,575.52,694.78,572.72,697.56
			z"/>
	</g>
</g>
</svg>
