<?xml version="1.0" encoding="utf-8"?>
<!-- Generator: Adobe Illustrator 24.0.0, SVG Export Plug-In . SVG Version: 6.00 Build 0)  -->
<svg  version="1.1" id="Layer_1" xmlns="http://www.w3.org/2000/svg" xmlns:xlink="http://www.w3.org/1999/xlink" x="0px" y="0px"
	 viewBox="0 0 638.77 380" style="enable-background:new 0 0 638.77 750;" xml:space="preserve">
<style type="text/css">
	.st0{fill:#E58203;}
	.st1{fill:#FFFFFF;}
</style>
<g>
	<path d="M40.38,253.36l73.28-6.26c0,0,1.28,23.74,35.11,23.74c26.55,0,29.87-15.32,27.57-23.23c-2.3-7.91-19.79-13.02-58.72-18.89
		s-69.06-20.47-69.06-61.32s35.23-60.09,97.19-60.09s82.89,23.15,92.09,53.28l-69.96,6.47c0,0-2.51-19.66-30.72-19.66
		s-28.6,22.21-11.87,28.34c16.72,6.13,60.77,4.85,87.19,18.26s42.21,48.81,24.51,79.79s-53.96,39.32-95.66,39.32
		S52.81,306.63,40.38,253.36z"/>
	<path d="M326.85,41.61v94.13c0,0-17.87-23.49-53.62-23.49c-48.77,0-82.72,34.13-82.72,103.38s39.32,101.89,80.85,101.89
		s61.79-33.4,61.79-33.4v28.98h68.43V41.61H326.85z M295.32,262.42c-19.02,0-32.17-17.11-32.17-46.79s12.51-46.79,31.02-46.79
		c18.38,0,35.11,14.17,35.11,45.83C329.28,246.34,314.34,262.42,295.32,262.42z"/>
	<path d="M452.26,384.09v-94.13c0,0,17.87,23.49,53.62,23.49c48.77,0,82.72-34.13,82.72-103.38s-39.32-101.89-80.85-101.89
		s-61.79,33.4-61.79,33.4V112.6h-68.43v271.49H452.26z M484.24,163.94c18.75,0,31.71,17.09,31.71,46.75s-12.33,46.75-30.58,46.75
		c-18.12,0-34.61-14.16-34.61-45.79C450.77,180.02,465.49,163.94,484.24,163.94z"/>
	<g>
		<g>
			<path class="st0" d="M236.98,273.78c-5.03,8.8-11.55,15.77-19.28,21.25c-16.33-16.75-27.18-43.02-27.18-79.39
				c0-10.33,0.76-19.88,2.21-28.65c7.12,1.77,13.87,4.03,19.74,7.01C238.9,207.4,254.69,242.81,236.98,273.78z"/>
			<path class="st0" d="M237.84,160.59l-39.21,3.63c5.22-14.16,12.82-25.4,22.34-33.75C229.28,138.95,234.39,149.28,237.84,160.59z"
				/>
		</g>
		<rect x="377.53" y="112.6" class="st0" width="24.04" height="200.5"/>
	</g>




</g>
</svg>
